<svg width="195" height="70" viewBox="0 0 195 70" fill="none" xmlns="http://www.w3.org/2000/svg">
<path d="M169.311 49.0808H25.6756C22.2246 49.0808 18.8643 48.4321 15.7116 47.1607C12.6497 45.9281 9.91218 44.1637 7.5509 41.9192C5.18962 39.6617 3.33433 37.0409 2.02395 34.1218C0.687625 31.0858 0 27.8553 0 24.5339C0 21.2126 0.687625 17.982 2.02395 14.9591C3.32136 12.0399 5.17665 9.40619 7.53792 7.16168C9.8992 4.91717 12.6367 3.15269 15.6986 1.92016C18.8643 0.648703 22.2246 0 25.6756 0H169.311C172.762 0 176.123 0.648703 179.275 1.92016C182.324 3.15269 185.075 4.91717 187.436 7.16168C189.797 9.41916 191.666 12.0399 192.963 14.9591C194.312 17.995 195 21.2126 195 24.5339C195 27.8553 194.312 31.0858 192.963 34.1218C191.666 37.0409 189.81 39.6617 187.449 41.9192C185.101 44.1637 182.35 45.9281 179.288 47.1607C176.11 48.4321 172.762 49.0808 169.311 49.0808Z" fill="white"/>
<path d="M137.72 4.77441C140.678 5.08579 143.714 5.64368 146.347 7.10974C148.099 8.10875 149.643 9.70455 150.006 11.7285C150.149 12.9221 150.11 14.1417 149.812 15.3093C147.839 12.8702 145.66 10.4441 142.832 8.96503C144.765 11.2485 146.931 13.4411 148.268 16.1397C146.27 16.6327 144.077 16.2175 142.377 15.0628C140.431 13.7395 139.277 11.5598 138.628 9.3802C138.122 7.88819 137.953 6.3313 137.72 4.77441Z" fill="#0E9A48"/>
<path d="M19.0462 19.1886C19.0462 21.3423 19.0462 23.5089 19.0462 25.6756C20.7328 25.7015 22.4324 25.7145 24.1191 25.6756C24.9494 25.6756 25.8316 25.468 26.4414 24.8712C27.0642 24.2744 27.2199 23.3922 27.2588 22.5878C27.2847 21.6536 27.0772 20.6417 26.4155 19.967C25.7538 19.3702 24.8197 19.1756 23.9245 19.1886C22.3027 19.1886 20.668 19.1756 19.0462 19.1886ZM14.2718 17.5928C14.2069 16.3213 15.3616 15.1407 16.659 15.1926C19.4614 15.2055 22.2508 15.2055 25.0532 15.2055C26.8696 15.2445 28.8287 15.7115 30.1131 17.0608C31.3975 18.3063 31.8776 20.1227 31.9684 21.8612C32.0722 23.8333 31.7608 25.961 30.5023 27.5698C29.3346 29.1137 27.3107 29.7495 25.4165 29.8014C23.2887 29.8143 21.174 29.8014 19.0462 29.8143C19.0592 32.5259 19.0462 35.2375 19.0592 37.962H14.2588C14.2718 31.1636 14.2588 24.3782 14.2718 17.5928Z" fill="#0E9A48"/>
<path d="M33.7197 15.2056C34.4982 15.2056 35.2766 15.1796 36.0551 15.1926C37.2616 15.1407 38.3515 16.2305 38.3255 17.4241C38.3385 19.1497 38.3255 20.8623 38.3255 22.5748C39.2078 21.1607 40.7257 20.1876 42.3994 19.993C45.8245 19.3702 49.4183 21.8094 50.1708 25.1048C50.3784 25.9611 50.4563 26.8303 50.4692 27.7126V37.9491C48.9513 37.9491 47.4333 37.9491 45.9024 37.9491C45.8894 34.7704 45.9024 31.5918 45.9024 28.4261C45.9413 26.6876 45.1109 24.6896 43.3205 24.0798C42.0491 23.7036 40.5181 23.9501 39.597 24.9361C38.6628 25.9221 38.3515 27.2974 38.3385 28.5948V37.9361C36.8076 37.9361 35.2636 37.9361 33.7327 37.9361C33.7197 30.3722 33.7327 22.7694 33.7197 15.2056Z" fill="#0E9A48"/>
<path d="M60.5113 30.0607C59.5642 30.2683 58.5263 30.424 57.7867 31.0987C57.0342 31.9809 57.0342 33.4859 57.9554 34.2514C58.682 34.7833 59.668 34.7184 60.5113 34.6017C61.7438 34.446 62.8726 33.6156 63.3137 32.4739C63.7548 31.41 63.6121 30.2424 63.638 29.1136C62.639 29.5548 61.5752 29.8532 60.5113 30.0607ZM55.7628 21.0308C57.4754 19.941 59.6161 19.8242 61.6011 19.941C63.3396 20.0707 65.1949 20.3821 66.5572 21.5368C67.5173 22.3282 68.0233 23.5478 68.0233 24.7673C68.0233 26.8432 68.0103 28.919 68.0233 31.0078C68.0103 32.6556 67.6989 34.4071 66.5702 35.7045C65.2338 37.3911 62.9764 38.0787 60.8616 38.1695C58.7857 38.4031 56.5153 38.2863 54.7638 37.0278C53.3237 36.0937 52.8177 34.2903 52.8826 32.6685C52.8177 31.1506 53.3107 29.451 54.673 28.5817C56.2688 27.4789 58.2408 27.1546 60.135 26.921C61.1859 26.7524 62.3536 26.6615 63.1839 25.948C63.7808 25.429 63.6121 24.3651 62.9115 24.0278C62.2758 23.7164 61.5492 23.6256 60.8616 23.5607C59.7329 23.5088 58.3965 23.7294 57.8257 24.8192C56.3207 24.8322 54.8027 24.8322 53.3107 24.8192C53.5183 23.3013 54.4135 21.8741 55.7628 21.0308Z" fill="#0E9A48"/>
<path d="M83.6823 21.8874C85.356 20.6159 87.4837 19.9542 89.5855 19.9023C91.5187 19.9542 93.5945 20.2656 95.1255 21.5371C96.5526 20.3694 98.4338 20.0321 100.237 19.9153C102.287 19.8634 104.376 20.4473 106.076 21.6019C107.295 22.4582 107.905 23.9243 108.138 25.3385C108.385 26.597 108.294 27.9073 108.307 29.1788V37.9493C107.269 37.9103 106.205 38.053 105.18 37.8455C104.298 37.586 103.636 36.7297 103.662 35.8085V26.9862C103.662 26.1688 103.572 25.2736 102.975 24.6638C101.69 23.3405 99.3291 23.3405 98.0446 24.6379C97.4738 25.2087 97.344 26.0261 97.344 26.7916C97.331 30.5151 97.344 34.2387 97.331 37.9622C95.7742 37.9622 94.2043 37.9622 92.6474 37.9622V26.6229C92.6734 25.8055 92.3879 24.8974 91.6873 24.3914C90.3899 23.3924 88.34 23.4313 87.1724 24.599C86.6404 25.1179 86.4588 25.8834 86.4718 26.6229C86.4588 30.3984 86.4718 34.1868 86.4718 37.9752C84.8889 37.9752 83.3061 37.9752 81.7362 37.9752C81.7362 34.3295 81.7233 30.6578 81.7362 26.9992C81.8271 25.1568 82.2033 23.1459 83.6823 21.8874Z" fill="#0E9A48"/>
<path d="M117 30.2813C116.183 30.5019 115.184 30.8262 114.924 31.7214C114.483 32.7334 114.873 34.1995 116.053 34.5368C117.623 34.939 119.53 34.5238 120.477 33.1486C121.321 31.9809 121.139 30.463 121.152 29.1266C119.816 29.7105 118.401 29.9699 117 30.2813ZM114.379 20.4859C116.481 19.7204 118.804 19.8113 120.983 20.1745C122.774 20.4859 124.629 21.4719 125.265 23.2494C125.758 24.8063 125.472 26.4799 125.55 28.0757C125.472 30.424 125.862 33.0059 124.525 35.0947C123.345 37.0278 121.022 38.0009 118.791 38.1306C116.689 38.3512 114.392 38.3901 112.563 37.2224C111.162 36.4699 110.461 34.9001 110.383 33.3951C110.28 31.8642 110.461 30.1256 111.629 29.0099C113.095 27.7384 115.067 27.2324 116.974 27.0119C118.181 26.7913 119.53 26.7913 120.555 26.0518C121.243 25.5977 121.191 24.4819 120.477 24.0797C119.868 23.7424 119.167 23.6646 118.479 23.5737C117.325 23.4959 115.91 23.6905 115.314 24.8192C113.809 24.8322 112.304 24.8322 110.799 24.8192C111.058 22.8731 112.498 21.1476 114.379 20.4859Z" fill="#0E9A48"/>
<path d="M73.0569 22.2764C75.0808 20.6676 77.7924 20.2654 80.3094 20.3303C80.3094 21.9001 80.3094 23.483 80.3094 25.0658C78.999 25.0917 77.5718 24.8842 76.3912 25.5847C75.3143 26.1945 74.9381 27.4919 74.9381 28.6337V37.975C73.3682 37.975 71.7984 37.975 70.2285 37.975C70.2415 34.8612 70.2155 31.7604 70.2415 28.6596C70.2934 26.2724 71.1497 23.7943 73.0569 22.2764Z" fill="#0E9A48"/>
<path d="M154.171 15.2055C155.494 15.3352 157.142 14.7773 158.167 15.8542C158.777 16.3861 158.88 17.2165 158.842 17.9819C158.829 18.7993 158.829 19.6167 158.829 20.4211H161.592C161.579 21.2125 161.709 22.1466 161.086 22.7823C160.554 23.457 159.659 23.6257 158.829 23.5867C158.829 26.8043 158.829 30.0089 158.829 33.2265C158.803 33.6935 159.01 34.2255 159.503 34.3682C160.191 34.5239 160.891 34.4071 161.592 34.433C161.592 35.6007 161.579 36.7684 161.592 37.936C159.983 37.949 158.374 38.0009 156.766 37.8582C156.13 37.8063 155.468 37.6117 154.988 37.1446C154.378 36.5478 154.184 35.6656 154.171 34.8482C154.171 28.3223 154.184 21.7574 154.171 15.2055Z" fill="#1B459C"/>
<path d="M129.948 22.4323C131.155 20.9532 133.036 20.1099 134.943 19.9542C137.058 19.7726 139.315 20.071 141.106 21.2776C142.637 22.3025 143.558 24.0021 144.038 25.7147C142.468 25.7147 140.911 25.6888 139.341 25.7147C138.952 25.092 138.511 24.4433 137.823 24.1189C136.513 23.5221 134.774 23.6518 133.737 24.6898C132.828 25.7147 132.595 27.1159 132.543 28.4263C132.504 29.9313 132.543 31.553 133.386 32.8764C134.567 34.8225 137.771 34.8874 139.173 33.1618C139.484 32.8375 139.86 32.5131 140.327 32.5131C141.599 32.4612 142.883 32.5131 144.168 32.4872C143.701 34.2127 142.715 35.8215 141.21 36.8205C139.173 38.2087 136.539 38.4942 134.152 38.079C132.037 37.7287 130.169 36.3405 129.144 34.4852C128.106 32.591 127.859 30.3724 127.937 28.2447C128.028 26.1948 128.573 24.054 129.948 22.4323Z" fill="#1B459C"/>
<path d="M145.971 20.3176C147.099 20.3954 148.28 20.1359 149.357 20.5122C150.148 20.8754 150.719 21.6928 150.693 22.575V37.9623C149.123 37.9493 147.541 37.9623 145.984 37.9623C145.984 32.072 145.984 26.1948 145.971 20.3176Z" fill="#1B459C"/>
<path d="M163.317 20.3174H168.533C169.571 23.8463 170.596 27.3753 171.634 30.8912C171.789 31.4361 171.893 32.033 172.192 32.5389C173.255 28.9322 174.306 25.3124 175.357 21.7186C175.565 20.9531 176.278 20.3823 177.083 20.3433C178.302 20.2914 179.509 20.3433 180.716 20.3174C178.588 26.519 176.473 32.7206 174.345 38.9351C173.761 40.6218 173.217 42.5549 171.621 43.6188C169.843 44.4491 167.767 44.3583 165.873 44.1377V40.505C167.015 40.4791 168.338 40.6477 169.285 39.8563C169.908 39.3763 169.817 38.494 169.571 37.8324C167.495 32.007 165.406 26.1557 163.317 20.3174Z" fill="#1B459C"/>
<path d="M25.6756 0.505988C22.2894 0.505988 18.994 1.14172 15.8932 2.38723C12.8962 3.59381 10.2106 5.31936 7.9012 7.51198C5.57884 9.71757 3.76248 12.2994 2.49102 15.1537C1.16766 18.1248 0.505988 21.2774 0.505988 24.5339C0.505988 27.7904 1.16766 30.9431 2.49102 33.9142C3.76248 36.7814 5.57884 39.3503 7.9012 41.5559C10.2106 43.7615 12.8962 45.487 15.9062 46.6936C19.007 47.9391 22.2894 48.5749 25.6886 48.5749H169.311C172.698 48.5749 175.993 47.9391 179.081 46.6936C182.078 45.487 184.763 43.7615 187.073 41.5559C189.395 39.3503 191.212 36.7685 192.483 33.9142C193.806 30.9431 194.468 27.7904 194.468 24.5339C194.468 21.2774 193.793 18.1248 192.483 15.1537C191.212 12.2864 189.395 9.71757 187.073 7.51198C184.763 5.30639 182.065 3.58084 179.081 2.37425C175.98 1.12874 172.698 0.493014 169.311 0.493014H25.6756V0.505988ZM169.311 49.0808H25.6756C22.2246 49.0808 18.8643 48.4321 15.7116 47.1607C12.6497 45.9281 9.91218 44.1637 7.5509 41.9192C5.18962 39.6617 3.33433 37.0409 2.02395 34.1218C0.687625 31.0858 0 27.8553 0 24.5339C0 21.2126 0.687625 17.982 2.02395 14.9591C3.32136 12.0399 5.17665 9.40619 7.53792 7.16168C9.8992 4.91717 12.6367 3.15269 15.6986 1.92016C18.8643 0.648703 22.2246 0 25.6756 0H169.311C172.762 0 176.123 0.648703 179.275 1.92016C182.324 3.15269 185.075 4.91717 187.436 7.16168C189.797 9.41916 191.666 12.0399 192.963 14.9591C194.312 17.995 195 21.2126 195 24.5339C195 27.8553 194.312 31.0858 192.963 34.1218C191.666 37.0409 189.81 39.6617 187.449 41.9192C185.101 44.1637 182.35 45.9281 179.288 47.1607C176.11 48.4321 172.762 49.0808 169.311 49.0808Z" fill="#59595B"/>
<path d="M36 65.9893V56.0035C36 55.4444 36.347 55.0878 36.8675 55.0878C37.2916 55.0878 37.5422 55.3191 37.7832 55.6275L43.5472 63.6953H43.5762V56.0324C43.5762 55.4444 43.9039 55.0781 44.4244 55.0781C44.9642 55.0781 45.2919 55.4348 45.2919 56.0324V65.999C45.2919 66.5677 44.9834 66.934 44.4533 66.934C44.0292 66.934 43.7979 66.7026 43.4991 66.2978L37.735 58.259H37.7061V65.9893C37.7061 66.5773 37.3784 66.934 36.8579 66.934C36.3277 66.9436 36 66.5773 36 65.9893Z" fill="white"/>
<path d="M47.1133 66.0091V55.1364C47.1133 54.6159 47.441 54.2207 47.9519 54.2207C48.4724 54.2207 48.8001 54.6159 48.8001 55.1364V58.9534H48.829C49.4844 58.269 50.2074 57.9702 51.0556 57.9702C52.9255 57.9702 54.1979 59.2136 54.1979 60.9776V65.9994C54.1979 66.5392 53.8894 66.9344 53.3593 66.9344C52.8484 66.9344 52.5207 66.5392 52.5207 65.9994V61.2185C52.5207 60.2161 51.8171 59.4546 50.6508 59.4546C49.5423 59.4546 48.7808 60.3028 48.7808 61.4017V65.9994C48.7808 66.5392 48.4531 66.9344 47.9326 66.9344C47.441 66.944 47.1133 66.5488 47.1133 66.0091Z" fill="white"/>
<path d="M55.5957 62.4907C55.5957 59.9653 57.1476 57.9701 59.3934 57.9701C60.4055 57.9701 61.1091 58.346 61.755 59.1653H61.7839L61.8031 58.7894C61.8706 58.3267 62.1116 58.0375 62.6032 58.0375C63.1237 58.0375 63.4418 58.4424 63.4418 58.9532V66.0089C63.4418 66.5294 63.1333 66.9439 62.6032 66.9439C62.1116 66.9439 61.8706 66.6451 61.8031 66.192L61.7839 65.8161H61.755C61.2152 66.6161 60.4248 67.0113 59.432 67.0113C57.1186 67.0113 55.5957 65.0932 55.5957 62.4907ZM61.7453 62.4907C61.7453 60.8039 60.9742 59.493 59.538 59.493C58.1596 59.493 57.3403 60.8232 57.3403 62.4907C57.3403 64.2064 58.1404 65.4884 59.5476 65.4884C60.9549 65.4884 61.7453 64.2064 61.7453 62.4907ZM60.3573 56.9869L58.3813 56.1869C57.9861 56.0423 57.8898 55.8399 57.8898 55.5603C57.8898 55.2037 58.15 54.876 58.5163 54.876C58.6609 54.876 58.7958 54.9049 58.9886 54.9724L61.1477 55.8591C61.4465 55.9748 61.5718 56.1676 61.5718 56.4278C61.5718 56.8038 61.3116 57.1315 60.9453 57.1315C60.8103 57.1411 60.6658 57.1218 60.3573 56.9869Z" fill="white"/>
<path d="M69.8711 66.0091V59.6282H69.3121C68.7434 59.6282 68.4639 59.3294 68.4639 58.8763C68.4639 58.4137 68.7434 58.1438 69.3121 58.1438H69.8711V56.2738C69.8711 55.7341 70.1989 55.3389 70.7097 55.3389C71.2302 55.3389 71.5579 55.7437 71.5579 56.2738V58.1438H72.3098C72.7821 58.1438 73.1098 58.404 73.1098 58.8763C73.1098 59.3679 72.7821 59.6282 72.3098 59.6282H71.5579V66.0091C71.5579 66.5489 71.2302 66.9441 70.7097 66.9441C70.1989 66.9441 69.8711 66.5489 69.8711 66.0091Z" fill="white"/>
<path d="M74.9893 66.0091V55.1364C74.9893 54.6159 75.317 54.2207 75.8278 54.2207C76.3483 54.2207 76.6761 54.6159 76.6761 55.1364V58.9534H76.705C77.3604 58.269 78.0833 57.9702 78.9316 57.9702C80.8015 57.9702 82.0738 59.2136 82.0738 60.9776V65.9994C82.0738 66.5392 81.7654 66.9344 81.2353 66.9344C80.7244 66.9344 80.3967 66.5392 80.3967 65.9994V61.2185C80.3967 60.2161 79.693 59.4546 78.5267 59.4546C77.4183 59.4546 76.6568 60.3028 76.6568 61.4017V65.9994C76.6568 66.5392 76.3291 66.9344 75.8086 66.9344C75.317 66.944 74.9893 66.5488 74.9893 66.0091Z" fill="white"/>
<path d="M83.877 63.9462V58.9533C83.877 58.4424 84.2047 58.0376 84.7155 58.0376C85.236 58.0376 85.5638 58.4424 85.5638 58.9533V63.5992C85.5638 64.7752 86.2674 65.5174 87.4337 65.5174C88.5807 65.5174 89.3037 64.7848 89.3037 63.5992V58.9533C89.3037 58.4424 89.6314 58.0376 90.1422 58.0376C90.6627 58.0376 90.9808 58.4424 90.9808 58.9533V63.9173C90.9808 65.7487 89.5928 67.0114 87.4433 67.0114C85.2746 67.0114 83.877 65.7487 83.877 63.9462Z" fill="white"/>
<path d="M92.3584 62.4908C92.3584 59.9654 93.8813 57.9701 96.32 57.9701C98.7393 57.9701 100.262 59.9461 100.262 62.4908C100.262 65.1125 98.7393 67.0114 96.32 67.0114C93.8813 67.0114 92.3584 65.0933 92.3584 62.4908ZM93.7368 56.5821C93.7368 56.2351 93.8332 56.0134 94.2958 55.811L95.626 55.2423C95.8188 55.1652 96.1947 55.011 96.3103 55.011C96.4742 55.011 96.8501 55.1749 97.1489 55.3098L98.3731 55.8303C98.6815 55.9652 98.8936 56.1291 98.8936 56.5821C98.8936 56.8809 98.6526 57.1894 98.3249 57.1894C98.1417 57.1894 97.949 57.1219 97.6887 57.0062L96.3103 56.399L94.9223 57.0352C94.7778 57.1026 94.5175 57.1797 94.2958 57.1797C93.9585 57.1894 93.7368 56.8713 93.7368 56.5821ZM93.9777 54.0567C93.9777 53.7965 94.0934 53.5941 94.3826 53.4881L96.5417 52.6013C96.7345 52.5338 96.8694 52.5049 97.0333 52.5049C97.3803 52.5049 97.6598 52.8326 97.6598 53.1892C97.6598 53.4688 97.5634 53.6615 97.1489 53.8158L95.1826 54.6158C94.8549 54.7507 94.7199 54.7604 94.5753 54.7604C94.238 54.7604 93.9777 54.4327 93.9777 54.0567ZM98.5273 62.4908C98.5273 60.804 97.7369 59.4931 96.3007 59.4931C94.9416 59.4931 94.103 60.7365 94.103 62.4715C94.103 64.1872 94.9031 65.4788 96.3103 65.4788C97.708 65.4885 98.5273 64.2065 98.5273 62.4908Z" fill="white"/>
<path d="M101.245 62.539C101.245 60.0811 102.845 57.9702 105.284 57.9702C105.939 57.9702 106.575 58.1052 107.038 58.3172C107.481 58.51 107.771 58.8088 107.771 59.1847C107.771 59.657 107.491 60.0329 106.98 60.0329C106.816 60.0329 106.653 59.9558 106.469 59.8498C106.142 59.7052 105.814 59.551 105.255 59.551C103.819 59.551 102.98 60.939 102.98 62.433C102.98 64.0909 103.848 65.4114 105.207 65.4114C105.718 65.4114 106.103 65.2958 106.402 65.1705C106.681 65.0741 106.874 64.9584 107.028 64.9584C107.385 64.9584 107.732 65.2861 107.732 65.6813C107.732 66.1054 107.404 66.4332 106.913 66.6645C106.44 66.8958 105.814 67.0115 105.178 67.0115C102.807 67.0115 101.245 64.8813 101.245 62.539Z" fill="white"/>
<path d="M113.69 66.0091V59.6282H113.13C112.562 59.6282 112.282 59.3294 112.282 58.8763C112.282 58.4137 112.562 58.1438 113.13 58.1438H113.69V56.2738C113.69 55.7341 114.017 55.3389 114.528 55.3389C115.049 55.3389 115.376 55.7437 115.376 56.2738V58.1438H116.128C116.6 58.1438 116.928 58.404 116.928 58.8763C116.928 59.3679 116.6 59.6282 116.128 59.6282H115.376V66.0091C115.376 66.5489 115.049 66.9441 114.528 66.9441C114.017 66.9441 113.69 66.5489 113.69 66.0091Z" fill="white"/>
<path d="M118.335 55.8401C118.335 55.2521 118.827 54.7798 119.395 54.7798C120.022 54.7798 120.475 55.2521 120.475 55.8401C120.475 56.4473 120.002 56.9003 119.395 56.9003C118.827 56.91 118.335 56.4473 118.335 55.8401ZM118.566 66.0091V58.9534C118.566 58.4426 118.894 58.0377 119.405 58.0377C119.945 58.0377 120.253 58.4426 120.253 58.9534V66.0091C120.253 66.5489 119.925 66.9441 119.405 66.9441C118.894 66.9441 118.566 66.5489 118.566 66.0091Z" fill="white"/>
<path d="M121.642 62.4905C121.642 60.129 123.193 57.9699 125.651 57.9699C128.09 57.9699 129.526 60.0133 129.526 62.2592C129.526 62.8857 129.218 63.1267 128.591 63.1267H123.454C123.531 64.5147 124.485 65.5171 125.844 65.5171C126.635 65.5171 127.271 65.2762 128.042 64.6496C128.283 64.4665 128.504 64.3701 128.678 64.3701C129.102 64.3701 129.401 64.6785 129.401 65.1027C129.401 65.4304 129.16 65.787 128.765 66.0858C128.09 66.5967 126.962 67.0015 125.786 67.0015C123.213 67.0112 121.642 65.0545 121.642 62.4905ZM122.933 56.5819C122.933 56.2349 123.03 56.0132 123.492 55.8108L124.822 55.2421C125.015 55.165 125.391 55.0107 125.507 55.0107C125.671 55.0107 126.047 55.1746 126.345 55.3095L127.57 55.83C127.878 55.965 128.09 56.1289 128.09 56.5819C128.09 56.8807 127.849 57.1891 127.521 57.1891C127.338 57.1891 127.145 57.1217 126.885 57.006L125.507 56.3987L124.119 57.0349C123.974 57.1024 123.714 57.1795 123.492 57.1795C123.165 57.1891 122.933 56.871 122.933 56.5819ZM127.782 61.864C127.714 60.4567 126.818 59.3964 125.622 59.3964C124.447 59.3964 123.54 60.4471 123.463 61.864H127.782ZM124.543 68.8715C124.543 68.3124 124.986 67.8883 125.507 67.8883C126.047 67.8883 126.49 68.3124 126.49 68.8715C126.49 69.4112 126.047 69.8546 125.507 69.8546C124.967 69.8546 124.543 69.4112 124.543 68.8715Z" fill="white"/>
<path d="M130.779 66.0087V58.953C130.779 58.4422 131.107 58.0373 131.618 58.0373C132.129 58.0373 132.389 58.3361 132.456 58.7892V59.088H132.485C133.006 58.3361 133.748 57.9795 134.731 57.9795C136.601 57.9795 137.874 59.2229 137.874 60.9868V66.0087C137.874 66.5292 137.565 66.9437 137.035 66.9437C136.524 66.9437 136.196 66.5388 136.196 66.0087V61.2567C136.196 60.2061 135.473 59.4542 134.326 59.4542C133.228 59.4542 132.456 60.3025 132.456 61.4013V65.999C132.456 66.5388 132.129 66.934 131.608 66.934C131.107 66.9437 130.779 66.5485 130.779 66.0087Z" fill="white"/>
<path d="M143.812 66.0091V55.1364C143.812 54.6159 144.139 54.2207 144.65 54.2207C145.19 54.2207 145.498 54.6159 145.498 55.1364V66.0091C145.498 66.5488 145.171 66.944 144.65 66.944C144.139 66.944 143.812 66.5488 143.812 66.0091Z" fill="white"/>
<path d="M153.488 59.0399C154.327 59.8592 154.78 61.0833 154.78 62.4906C154.78 65.1124 153.257 67.0112 150.838 67.0112C148.399 67.0112 146.876 65.0931 146.876 62.4906C146.876 59.9652 148.399 57.9699 150.838 57.9699C151.242 57.9699 151.628 58.0181 151.965 58.1338C152.553 58.1049 153.18 57.8543 153.488 56.9579C153.623 56.5819 153.845 56.3892 154.173 56.3892C154.577 56.3892 154.857 56.6301 154.799 57.1217C154.664 57.9892 154.173 58.6447 153.488 59.0399ZM153.045 62.4906C153.045 60.8038 152.254 59.4929 150.818 59.4929C149.459 59.4929 148.621 60.7363 148.621 62.4713C148.621 64.187 149.421 65.4786 150.828 65.4786C152.226 65.4883 153.045 64.2063 153.045 62.4906ZM151.801 68.8715C151.801 69.4113 151.358 69.8547 150.818 69.8547C150.279 69.8547 149.854 69.4113 149.854 68.8715C149.854 68.3125 150.298 67.8884 150.818 67.8884C151.358 67.8884 151.801 68.3125 151.801 68.8715Z" fill="white"/>
<path d="M155.937 55.8401C155.937 55.2521 156.428 54.7798 156.997 54.7798C157.623 54.7798 158.076 55.2521 158.076 55.8401C158.076 56.4473 157.604 56.9003 156.997 56.9003C156.428 56.91 155.937 56.4473 155.937 55.8401ZM156.168 66.0091V58.9534C156.168 58.4426 156.496 58.0377 157.006 58.0377C157.546 58.0377 157.855 58.4426 157.855 58.9534V66.0091C157.855 66.5489 157.527 66.9441 157.006 66.9441C156.496 66.9441 156.168 66.5489 156.168 66.0091Z" fill="white"/>
</svg>
